The exploits of three young Roman criminals are chronicled in this socially conscious drama. The young men commit petty crimes all day begin with arms theft, and culminating with a night with three streetwalkers. After their pleasure, the boys try to cheat the hookers, but they ladies are smarter than that and have stolen their cash ahead of time. The punks then return to the city for more crimes. Exploits include the harassment of three homosexuals, and attempts to seduce some women. 

   General
      Complete name : La Notte Brava.avi
      Format : AVI
      Format/Info : Audio Video Interleave
      File size : 1.45 GiB
      Duration : 1h 31mn
      Overall bit rate : 2 282 Kbps
      Writing application : VirtualDubMod 1.5.10.2 (build 2540/release)
      Writing library : VirtualDubMod build 2540/release
   Video #0
      ID : 0
      Format : MPEG-4 Visual
      Format profile : AdvancedSimple@L5
      Format settings, BVOP : Yes
      Format settings, QPel : No
      Format settings, GMC : No warppoints
      Format settings, Matrix : Default (MPEG)
      Codec ID : XVID
      Codec ID/Hint : XviD
      Duration : 1h 31mn
      Bit rate : 2 083 Kbps
      Width : 720 pixels
      Height : 400 pixels
      Display aspect ratio : 16:9
      Frame rate : 25.000 fps
      Resolution : 24 bits
      Colorimetry : 4:2:0
      Scan type : Progressive
      Bits/(Pixel*Frame) : 0.289
      Stream size : 1.32 GiB (91%)
      Writing library : XviD 1.1.2 (UTC 2006-11-01)
   Audio #1
      ID : 1
      Format : AC-3
      Format/Info : Audio Coding 3
      Format profile : Dolby Digital
      Codec ID : 2000
      Duration : 1h 31mn
      Bit rate mode : Constant
      Bit rate : 192 Kbps
      Channel(s) : 2 channels
      Channel positions : L R
      Sampling rate : 48.0 KHz
      Stream size : 125 MiB (8%)
      Alignment : Split accross interleaves
      Interleave, duration : 96 ms (2.40 video frames)
      Interleave, preload duration : 96 ms
 
http://www.imdb.com/title/tt0051469/

Italian audio; Italian, English, Spanish and Portuguese subtitles

Posted originally at KG by rulle.

Mauro Bolognini - La notte brava (1959)